<svg width="48" height="48" viewBox="0 0 48 48" fill="none" xmlns="http://www.w3.org/2000/svg">
<path d="M0 24C0 10.7452 10.7452 0 24 0C37.2548 0 48 10.7452 48 24C48 37.2548 37.2548 48 24 48C10.7452 48 0 37.2548 0 24Z" fill="#D8D8D8"/>
<g clip-path="url(#clip0)">
<path d="M35 17.1881C34.1345 17.5604 33.2688 17.7928 32.4037 17.8862C33.3808 17.2999 34.0417 16.4717 34.3861 15.4015C33.4923 15.9319 32.5385 16.2947 31.5243 16.4902C30.6308 15.541 29.5328 15.0662 28.2296 15.0662C26.9828 15.0662 25.9196 15.5058 25.0398 16.3853C24.1605 17.2648 23.7208 18.3279 23.7208 19.5749C23.7208 19.9099 23.758 20.2543 23.8325 20.6079C21.9898 20.5149 20.2612 20.0519 18.6464 19.219C17.0318 18.386 15.6614 17.2762 14.5354 15.8897C14.1259 16.5875 13.9211 17.3461 13.9211 18.165C13.9211 18.9374 14.1026 19.6541 14.4657 20.3148C14.8286 20.9755 15.3173 21.5105 15.9315 21.9201C15.2055 21.8921 14.5262 21.7013 13.8934 21.3476V21.4034C13.8934 22.4924 14.2354 23.4484 14.9194 24.2722C15.6034 25.096 16.4666 25.6145 17.5088 25.8287C17.1179 25.9309 16.7223 25.9821 16.3222 25.9821C16.0616 25.9821 15.7778 25.9589 15.4707 25.9127C15.7592 26.8152 16.2897 27.5571 17.062 28.139C17.8345 28.7207 18.7093 29.0205 19.6865 29.0396C18.0486 30.3236 16.1827 30.9656 14.0888 30.9656C13.6886 30.9656 13.3257 30.9474 13 30.9099C15.0939 32.2592 17.4019 32.9338 19.9239 32.9338C21.5246 32.9338 23.0276 32.6805 24.4324 32.1732C25.8379 31.6662 27.0383 30.9867 28.0341 30.135C29.0297 29.2835 29.8884 28.3041 30.6095 27.1967C31.3307 26.0892 31.868 24.933 32.2219 23.7279C32.5754 22.5225 32.7523 21.3152 32.7523 20.1052C32.7523 19.8446 32.7476 19.6493 32.7383 19.5189C33.6226 18.8771 34.3764 18.0999 35 17.1881Z" fill="white"/>
</g>
<defs>
<clipPath id="clip0">
<rect width="22" height="22" fill="white" transform="translate(13 13)"/>
</clipPath>
</defs>
</svg>
